{"title":"De Heineken Ontvoering 2011 DVD9rip Dutch Klam","uid":7050014,"size":1788636648,"categoryP":"video","categoryS":"movies","magnet":"?xt=urn:btih:3636a675f92ebae889a005f34ad6d4b9d4bd9131&amp;dn=De+Heineken+Ontvoering+2011+DVD9rip+Dutch+Klam&amp;tr=udp%3A%2F%2Ftracker.openbittorrent.com%3A80&amp;tr=udp%3A%2F%2Fopen.demonii.com%3A1337&amp;tr=udp%3A%2F%2Ftracker.coppersurfer.tk%3A6969&amp;tr=udp%3A%2F%2Fexodus.desync.com%3A6969","seeders":0,"leechers":0,"uploader":"Klambake","files":-1,"time":1329920066,"description":"With: Rutger Hauer, Reinout Scholten van Aschat and Gijs Naber\n\nDe Heineken Ontvoering is geÃƒÂ¯nspireerd op de bekendste ontvoeringszaak in Nederland. De biermagnaat Alfred Heineken wordt in 1983 samen met zijn chauffeur Ab Doderer ontvoerd door vier mannen, die 35 miljoen gulden losgeld eisen. Vier jonge, op geld beluste criminelen die elkaar al van jongs af aan kennen en een hechte clan vormen, sluiten Heineken en Doderer twee weken lang op in een Amsterdamse loods. De film laat het spannende verhaal van de ontvoering en de jacht op de daders zien, maar biedt ook een kijkje in de psychologische machtsstrijd tussen Heineken en zijn ontvoerders.\n\n------------------------ Dutch Friends ------------------------\n---------------------------------------------------------------\n- Bezoek ook eens mijn vrienden op: &lt;a href=&quot; http://www.Film-Test.nl&quot; rel=&quot;nofollow&quot; target=&quot;_NEW&quot;&gt; http://www.Film-Test.nl&lt;/a&gt; --\n----- voor mijn Nederlandse Sync. ondertitels ---- en meer ----\n------- http://www.Film-Test.nl ---- voor Films en meer -------\n---------------------------------------------------------------\n\nGeneral:\n\nComplete name                    : De Heineken Ontvoering\\De Heineken Ontvoering.avi\nFormat                           : AVI\nFormat/Info                      : Audio Video Interleave\nFile size                        : 1.67 GiB\nDuration                         : 1h 57mn\nOverall bit rate                 : 2 023 Kbps\n\nVideo:\n\nFormat                           : MPEG-4 Visual\nFormat profile                   : Simple@L3\nFormat settings, BVOP            : No\nFormat settings, QPel            : No\nFormat settings, GMC             : No warppoints\nFormat settings, Matrix          : Default (H.263)\nCodec ID                         : XVID\nCodec ID/Hint                    : XviD\nDuration                         : 1h 57mn\nBit rate                         : 1 564 Kbps\nWidth                            : 720 pixels\nHeight                           : 304 pixels\nDisplay aspect ratio             : 2.35:1\nFrame rate                       : 25.000 fps\nColor space                      : YUV\nChroma subsampling               : 4:2:0\nBit depth                        : 8 bits\nScan type                        : Progressive\nCompression mode                 : Lossy\nBits/(Pixel*Frame)               : 0.286\nStream size                      : 1.29 GiB (77%)\nWriting library                  : XviD 1.1.2 (UTC 2006-11-01)\n\nAudio:\n\nFormat                           : AC-3\nFormat/Info                      : Audio Coding 3\nMode extension                   : CM (complete main)\nCodec ID                         : 2000\nDuration                         : 1h 57mn\nBit rate mode                    : Constant\nBit rate                         : 448 Kbps\nChannel(s)                       : 6 channels\nChannel positions                : Front: L C R, Side: L R, LFE\nSampling rate                    : 48.0 KHz\nBit depth                        : 16 bits\nCompression mode                 : Lossy\nStream size                      : 378 MiB (22%)\nAlignment                        : Aligned on interleaves\nInterleave, duration             : 32 ms (0.80 video frame)\nInterleave, preload duration     : 288 ms\n\n","torrent":{"xt":"urn:btih:3636a675f92ebae889a005f34ad6d4b9d4bd9131","amp;dn":"De+Heineken+Ontvoering+2011+DVD9rip+Dutch+Klam","amp;tr":["udp%3A%2F%2Ftracker.openbittorrent.com%3A80","udp%3A%2F%2Fopen.demonii.com%3A1337","udp%3A%2F%2Ftracker.coppersurfer.tk%3A6969","udp%3A%2F%2Fexodus.desync.com%3A6969"],"infoHash":"3636a675f92ebae889a005f34ad6d4b9d4bd9131","infoHashBuffer":{"type":"Buffer","data":[54,54,166,117,249,46,186,232,137,160,5,243,74,214,212,185,212,189,145,49]},"announce":[],"urlList":[]}}